<svg width="1440" height="610" viewBox="0 0 1440 610" fill="none" xmlns="http://www.w3.org/2000/svg">
<rect y="40" width="1440" height="570" fill="#F1F5FF"/>
<g filter="url(#filter0_d_9_326)">
<path d="M1440 360C1406.86 360 1380 386.863 1380 420H1440V360Z" fill="white"/>
</g>
<g filter="url(#filter1_d_9_326)">
<path d="M345 253C333.954 253 325 261.954 325 273H365C365 261.954 356.046 253 345 253Z" fill="white"/>
</g>
<g filter="url(#filter2_d_9_326)">
<path d="M319 242C302.431 242 289 255.431 289 272H349C349 255.431 335.569 242 319 242Z" fill="white"/>
</g>
<g filter="url(#filter3_d_9_326)">
<path d="M1255 435C1235.67 435 1220 450.67 1220 470H1290C1290 450.67 1274.33 435 1255 435Z" fill="white"/>
</g>
<g filter="url(#filter4_d_9_326)">
<path d="M1225 420C1211.19 420 1200 431.193 1200 445H1250C1250 431.193 1238.81 420 1225 420Z" fill="white"/>
</g>
<g filter="url(#filter5_d_9_326)">
<path d="M1180 410C1146.86 410 1120 436.863 1120 470H1240C1240 436.863 1213.14 410 1180 410Z" fill="white"/>
</g>
<g filter="url(#filter6_d_9_326)">
<path d="M1390 40C1367.91 40 1350 57.9086 1350 80H1430C1430 57.9086 1412.09 40 1390 40Z" fill="white"/>
</g>
<g filter="url(#filter7_d_9_326)">
<path d="M1415 70C1401.19 70 1390 81.1929 1390 95H1440C1440 81.1929 1428.81 70 1415 70Z" fill="white"/>
</g>
<g filter="url(#filter8_d_9_326)">
<path d="M305 79C291.193 79 280 90.1929 280 104H330C330 90.1929 318.807 79 305 79Z" fill="white"/>
</g>
<g filter="url(#filter9_d_9_326)">
<path d="M80 370C80 325.817 44.1828 290 0 290V370H80Z" fill="white"/>
</g>
<g filter="url(#filter10_d_9_326)">
<path d="M488 370C476.954 370 468 378.954 468 390H508C508 378.954 499.046 370 488 370Z" fill="white"/>
</g>
<g filter="url(#filter11_d_9_326)">
<path d="M1356 50C1344.95 50 1336 58.9543 1336 70H1376C1376 58.9543 1367.05 50 1356 50Z" fill="white"/>
</g>
<path d="M0 445C202.563 445 347.231 408.349 480 410.581C789.192 415.781 643.192 261.279 960 261.279C1304.96 261.279 1222.4 125 1440 125" stroke="#5E80FE" stroke-width="3"/>
<path opacity="0.3" d="M480 410.855C347.231 408.62 202.563 445.306 0 445.306V490H1440V125C1222.4 125 1304.96 261.409 960 261.409C643.192 261.409 789.192 416.059 480 410.855Z" fill="url(#paint0_linear_9_326)"/>
<g filter="url(#filter12_d_9_326)">
<circle cx="1112" cy="249" r="8" fill="white"/>
<circle cx="1112" cy="249" r="7" stroke="#5E80FE" stroke-width="2"/>
</g>
<g filter="url(#filter13_d_9_326)">
<circle cx="1282" cy="169" r="8" fill="white"/>
<circle cx="1282" cy="169" r="7" stroke="#5E80FE" stroke-width="2"/>
</g>
<g filter="url(#filter14_d_9_326)">
<circle cx="158" cy="438" r="8" fill="white"/>
<circle cx="158" cy="438" r="7" stroke="#5E80FE" stroke-width="2"/>
</g>
<g filter="url(#filter15_d_9_326)">
<circle cx="364" cy="416" r="8" fill="white"/>
<circle cx="364" cy="416" r="7" stroke="#5E80FE" stroke-width="2"/>
</g>
<g filter="url(#filter16_d_9_326)">
<mask id="path-24-inside-1_9_326" fill="white">
<path d="M408 382.696C408 384.353 406.657 385.696 405 385.696H370.113C369.124 385.696 368.198 386.184 367.638 387L366.474 388.698C365.283 390.436 362.717 390.436 361.526 388.698L360.362 387C359.802 386.184 358.876 385.696 357.887 385.696H323C321.343 385.696 320 384.353 320 382.696V329C320 327.343 321.343 326 323 326H405C406.657 326 408 327.343 408 329V382.696Z"/>
</mask>
<path d="M408 382.696C408 384.353 406.657 385.696 405 385.696H370.113C369.124 385.696 368.198 386.184 367.638 387L366.474 388.698C365.283 390.436 362.717 390.436 361.526 388.698L360.362 387C359.802 386.184 358.876 385.696 357.887 385.696H323C321.343 385.696 320 384.353 320 382.696V329C320 327.343 321.343 326 323 326H405C406.657 326 408 327.343 408 329V382.696Z" fill="white"/>
<path d="M360.362 387L361.186 386.435L360.362 387ZM366.474 388.698L365.65 388.133L366.474 388.698ZM361.526 388.698L362.35 388.133L361.526 388.698ZM367.638 387L366.814 386.435L367.638 387ZM405 385.696V384.696H370.113V385.696V386.696H405V385.696ZM367.638 387L366.814 386.435L365.65 388.133L366.474 388.698L367.299 389.264L368.463 387.565L367.638 387ZM361.526 388.698L362.35 388.133L361.186 386.435L360.362 387L359.537 387.565L360.701 389.264L361.526 388.698ZM357.887 385.696V384.696H323V385.696V386.696H357.887V385.696ZM320 382.696H321V329H320H319V382.696H320ZM323 326V327H405V326V325H323V326ZM408 329H407V382.696H408H409V329H408ZM405 326V327C406.105 327 407 327.895 407 329H408H409C409 326.791 407.209 325 405 325V326ZM320 329H321C321 327.895 321.895 327 323 327V326V325C320.791 325 319 326.791 319 329H320ZM323 385.696V384.696C321.895 384.696 321 383.801 321 382.696H320H319C319 384.905 320.791 386.696 323 386.696V385.696ZM360.362 387L361.186 386.435C360.44 385.347 359.206 384.696 357.887 384.696V385.696V386.696C358.547 386.696 359.164 387.021 359.537 387.565L360.362 387ZM366.474 388.698L365.65 388.133C364.855 389.292 363.145 389.292 362.35 388.133L361.526 388.698L360.701 389.264C362.29 391.581 365.71 391.581 367.299 389.264L366.474 388.698ZM370.113 385.696V384.696C368.794 384.696 367.56 385.347 366.814 386.435L367.638 387L368.463 387.565C368.836 387.021 369.453 386.696 370.113 386.696V385.696ZM405 385.696V386.696C407.209 386.696 409 384.905 409 382.696H408H407C407 383.801 406.105 384.696 405 384.696V385.696Z" fill="#D8E0F7" mask="url(#path-24-inside-1_9_326)"/>
<path d="M347 356.251C347 346.724 354.887 339 364.617 339C366.41 339 368.141 339.263 369.771 339.75" stroke="#5E80FE" stroke-width="4" stroke-linecap="round" stroke-linejoin="round"/>
<path d="M360.728 352.121C362.691 350.158 376.491 342.031 377.21 342.748C377.928 343.467 369.8 357.267 367.837 359.231C365.874 361.194 362.691 361.194 360.728 359.231C358.764 357.267 358.764 354.085 360.728 352.121ZM364.282 354.24C363.489 354.24 362.846 354.883 362.846 355.676C362.846 356.469 363.489 357.113 364.282 357.113C365.076 357.113 365.719 356.469 365.719 355.676C365.719 354.883 365.076 354.24 364.282 354.24Z" fill="#5E80FE"/>
<ellipse cx="349.5" cy="365.501" rx="1.5" ry="1.50004" fill="#5E80FE"/>
<ellipse cx="355.5" cy="371.501" rx="1.5" ry="1.50004" fill="#5E80FE"/>
<ellipse cx="364.5" cy="373.501" rx="1.5" ry="1.50004" fill="#5E80FE"/>
<ellipse cx="374.5" cy="371.501" rx="1.5" ry="1.50004" fill="#5E80FE"/>
<ellipse cx="379.5" cy="365.501" rx="1.5" ry="1.50004" fill="#5E80FE"/>
<ellipse cx="381.5" cy="355.501" rx="1.5" ry="1.50004" fill="#5E80FE"/>
</g>
<defs>
<filter id="filter0_d_9_326" x="1335" y="320" width="150" height="150" filterUnits="userSpaceOnUse" color-interpolation-filters="sRGB">
<feFlood flood-opacity="0" result="BackgroundImageFix"/>
<feColorMatrix in="SourceAlpha" type="matrix" values="0 0 0 0 0 0 0 0 0 0 0 0 0 0 0 0 0 0 127 0" result="hardAlpha"/>
<feOffset dy="5"/>
<feGaussianBlur stdDeviation="22.5"/>
<feColorMatrix type="matrix" values="0 0 0 0 0.593724 0 0 0 0 0.684469 0 0 0 0 0.888646 0 0 0 0.1 0"/>
<feBlend mode="normal" in2="BackgroundImageFix" result="effect1_dropShadow_9_326"/>
<feBlend mode="normal" in="SourceGraphic" in2="effect1_dropShadow_9_326" result="shape"/>
</filter>
<filter id="filter1_d_9_326" x="280" y="213" width="130" height="110" filterUnits="userSpaceOnUse" color-interpolation-filters="sRGB">
<feFlood flood-opacity="0" result="BackgroundImageFix"/>
<feColorMatrix in="SourceAlpha" type="matrix" values="0 0 0 0 0 0 0 0 0 0 0 0 0 0 0 0 0 0 127 0" result="hardAlpha"/>
<feOffset dy="5"/>
<feGaussianBlur stdDeviation="22.5"/>
<feColorMatrix type="matrix" values="0 0 0 0 0.593724 0 0 0 0 0.684469 0 0 0 0 0.888646 0 0 0 0.1 0"/>
<feBlend mode="normal" in2="BackgroundImageFix" result="effect1_dropShadow_9_326"/>
<feBlend mode="normal" in="SourceGraphic" in2="effect1_dropShadow_9_326" result="shape"/>
</filter>
<filter id="filter2_d_9_326" x="244" y="202" width="150" height="120" filterUnits="userSpaceOnUse" color-interpolation-filters="sRGB">
<feFlood flood-opacity="0" result="BackgroundImageFix"/>
<feColorMatrix in="SourceAlpha" type="matrix" values="0 0 0 0 0 0 0 0 0 0 0 0 0 0 0 0 0 0 127 0" result="hardAlpha"/>
<feOffset dy="5"/>
<feGaussianBlur stdDeviation="22.5"/>
<feColorMatrix type="matrix" values="0 0 0 0 0.593724 0 0 0 0 0.684469 0 0 0 0 0.888646 0 0 0 0.1 0"/>
<feBlend mode="normal" in2="BackgroundImageFix" result="effect1_dropShadow_9_326"/>
<feBlend mode="normal" in="SourceGraphic" in2="effect1_dropShadow_9_326" result="shape"/>
</filter>
<filter id="filter3_d_9_326" x="1175" y="395" width="160" height="125" filterUnits="userSpaceOnUse" color-interpolation-filters="sRGB">
<feFlood flood-opacity="0" result="BackgroundImageFix"/>
<feColorMatrix in="SourceAlpha" type="matrix" values="0 0 0 0 0 0 0 0 0 0 0 0 0 0 0 0 0 0 127 0" result="hardAlpha"/>
<feOffset dy="5"/>
<feGaussianBlur stdDeviation="22.5"/>
<feColorMatrix type="matrix" values="0 0 0 0 0.593724 0 0 0 0 0.684469 0 0 0 0 0.888646 0 0 0 0.1 0"/>
<feBlend mode="normal" in2="BackgroundImageFix" result="effect1_dropShadow_9_326"/>
<feBlend mode="normal" in="SourceGraphic" in2="effect1_dropShadow_9_326" result="shape"/>
</filter>
<filter id="filter4_d_9_326" x="1155" y="380" width="140" height="115" filterUnits="userSpaceOnUse" color-interpolation-filters="sRGB">
<feFlood flood-opacity="0" result="BackgroundImageFix"/>
<feColorMatrix in="SourceAlpha" type="matrix" values="0 0 0 0 0 0 0 0 0 0 0 0 0 0 0 0 0 0 127 0" result="hardAlpha"/>
<feOffset dy="5"/>
<feGaussianBlur stdDeviation="22.5"/>
<feColorMatrix type="matrix" values="0 0 0 0 0.593724 0 0 0 0 0.684469 0 0 0 0 0.888646 0 0 0 0.1 0"/>
<feBlend mode="normal" in2="BackgroundImageFix" result="effect1_dropShadow_9_326"/>
<feBlend mode="normal" in="SourceGraphic" in2="effect1_dropShadow_9_326" result="shape"/>
</filter>
<filter id="filter5_d_9_326" x="1075" y="370" width="210" height="150" filterUnits="userSpaceOnUse" color-interpolation-filters="sRGB">
<feFlood flood-opacity="0" result="BackgroundImageFix"/>
<feColorMatrix in="SourceAlpha" type="matrix" values="0 0 0 0 0 0 0 0 0 0 0 0 0 0 0 0 0 0 127 0" result="hardAlpha"/>
<feOffset dy="5"/>
<feGaussianBlur stdDeviation="22.5"/>
<feColorMatrix type="matrix" values="0 0 0 0 0.593724 0 0 0 0 0.684469 0 0 0 0 0.888646 0 0 0 0.1 0"/>
<feBlend mode="normal" in2="BackgroundImageFix" result="effect1_dropShadow_9_326"/>
<feBlend mode="normal" in="SourceGraphic" in2="effect1_dropShadow_9_326" result="shape"/>
</filter>
<filter id="filter6_d_9_326" x="1305" y="0" width="170" height="130" filterUnits="userSpaceOnUse" color-interpolation-filters="sRGB">
<feFlood flood-opacity="0" result="BackgroundImageFix"/>
<feColorMatrix in="SourceAlpha" type="matrix" values="0 0 0 0 0 0 0 0 0 0 0 0 0 0 0 0 0 0 127 0" result="hardAlpha"/>
<feOffset dy="5"/>
<feGaussianBlur stdDeviation="22.5"/>
<feColorMatrix type="matrix" values="0 0 0 0 0.593724 0 0 0 0 0.684469 0 0 0 0 0.888646 0 0 0 0.1 0"/>
<feBlend mode="normal" in2="BackgroundImageFix" result="effect1_dropShadow_9_326"/>
<feBlend mode="normal" in="SourceGraphic" in2="effect1_dropShadow_9_326" result="shape"/>
</filter>
<filter id="filter7_d_9_326" x="1345" y="30" width="140" height="115" filterUnits="userSpaceOnUse" color-interpolation-filters="sRGB">
<feFlood flood-opacity="0" result="BackgroundImageFix"/>
<feColorMatrix in="SourceAlpha" type="matrix" values="0 0 0 0 0 0 0 0 0 0 0 0 0 0 0 0 0 0 127 0" result="hardAlpha"/>
<feOffset dy="5"/>
<feGaussianBlur stdDeviation="22.5"/>
<feColorMatrix type="matrix" values="0 0 0 0 0.593724 0 0 0 0 0.684469 0 0 0 0 0.888646 0 0 0 0.1 0"/>
<feBlend mode="normal" in2="BackgroundImageFix" result="effect1_dropShadow_9_326"/>
<feBlend mode="normal" in="SourceGraphic" in2="effect1_dropShadow_9_326" result="shape"/>
</filter>
<filter id="filter8_d_9_326" x="235" y="39" width="140" height="115" filterUnits="userSpaceOnUse" color-interpolation-filters="sRGB">
<feFlood flood-opacity="0" result="BackgroundImageFix"/>
<feColorMatrix in="SourceAlpha" type="matrix" values="0 0 0 0 0 0 0 0 0 0 0 0 0 0 0 0 0 0 127 0" result="hardAlpha"/>
<feOffset dy="5"/>
<feGaussianBlur stdDeviation="22.5"/>
<feColorMatrix type="matrix" values="0 0 0 0 0.593724 0 0 0 0 0.684469 0 0 0 0 0.888646 0 0 0 0.1 0"/>
<feBlend mode="normal" in2="BackgroundImageFix" result="effect1_dropShadow_9_326"/>
<feBlend mode="normal" in="SourceGraphic" in2="effect1_dropShadow_9_326" result="shape"/>
</filter>
<filter id="filter9_d_9_326" x="-45" y="250" width="170" height="170" filterUnits="userSpaceOnUse" color-interpolation-filters="sRGB">
<feFlood flood-opacity="0" result="BackgroundImageFix"/>
<feColorMatrix in="SourceAlpha" type="matrix" values="0 0 0 0 0 0 0 0 0 0 0 0 0 0 0 0 0 0 127 0" result="hardAlpha"/>
<feOffset dy="5"/>
<feGaussianBlur stdDeviation="22.5"/>
<feColorMatrix type="matrix" values="0 0 0 0 0.593724 0 0 0 0 0.684469 0 0 0 0 0.888646 0 0 0 0.1 0"/>
<feBlend mode="normal" in2="BackgroundImageFix" result="effect1_dropShadow_9_326"/>
<feBlend mode="normal" in="SourceGraphic" in2="effect1_dropShadow_9_326" result="shape"/>
</filter>
<filter id="filter10_d_9_326" x="423" y="330" width="130" height="110" filterUnits="userSpaceOnUse" color-interpolation-filters="sRGB">
<feFlood flood-opacity="0" result="BackgroundImageFix"/>
<feColorMatrix in="SourceAlpha" type="matrix" values="0 0 0 0 0 0 0 0 0 0 0 0 0 0 0 0 0 0 127 0" result="hardAlpha"/>
<feOffset dy="5"/>
<feGaussianBlur stdDeviation="22.5"/>
<feColorMatrix type="matrix" values="0 0 0 0 0.593724 0 0 0 0 0.684469 0 0 0 0 0.888646 0 0 0 0.1 0"/>
<feBlend mode="normal" in2="BackgroundImageFix" result="effect1_dropShadow_9_326"/>
<feBlend mode="normal" in="SourceGraphic" in2="effect1_dropShadow_9_326" result="shape"/>
</filter>
<filter id="filter11_d_9_326" x="1291" y="10" width="130" height="110" filterUnits="userSpaceOnUse" color-interpolation-filters="sRGB">
<feFlood flood-opacity="0" result="BackgroundImageFix"/>
<feColorMatrix in="SourceAlpha" type="matrix" values="0 0 0 0 0 0 0 0 0 0 0 0 0 0 0 0 0 0 127 0" result="hardAlpha"/>
<feOffset dy="5"/>
<feGaussianBlur stdDeviation="22.5"/>
<feColorMatrix type="matrix" values="0 0 0 0 0.593724 0 0 0 0 0.684469 0 0 0 0 0.888646 0 0 0 0.1 0"/>
<feBlend mode="normal" in2="BackgroundImageFix" result="effect1_dropShadow_9_326"/>
<feBlend mode="normal" in="SourceGraphic" in2="effect1_dropShadow_9_326" result="shape"/>
</filter>
<filter id="filter12_d_9_326" x="1089" y="226" width="46" height="46" filterUnits="userSpaceOnUse" color-interpolation-filters="sRGB">
<feFlood flood-opacity="0" result="BackgroundImageFix"/>
<feColorMatrix in="SourceAlpha" type="matrix" values="0 0 0 0 0 0 0 0 0 0 0 0 0 0 0 0 0 0 127 0" result="hardAlpha"/>
<feOffset/>
<feGaussianBlur stdDeviation="7.5"/>
<feColorMatrix type="matrix" values="0 0 0 0 0.323144 0 0 0 0 0.512664 0 0 0 0 1 0 0 0 0.25 0"/>
<feBlend mode="normal" in2="BackgroundImageFix" result="effect1_dropShadow_9_326"/>
<feBlend mode="normal" in="SourceGraphic" in2="effect1_dropShadow_9_326" result="shape"/>
</filter>
<filter id="filter13_d_9_326" x="1259" y="146" width="46" height="46" filterUnits="userSpaceOnUse" color-interpolation-filters="sRGB">
<feFlood flood-opacity="0" result="BackgroundImageFix"/>
<feColorMatrix in="SourceAlpha" type="matrix" values="0 0 0 0 0 0 0 0 0 0 0 0 0 0 0 0 0 0 127 0" result="hardAlpha"/>
<feOffset/>
<feGaussianBlur stdDeviation="7.5"/>
<feColorMatrix type="matrix" values="0 0 0 0 0.323144 0 0 0 0 0.512664 0 0 0 0 1 0 0 0 0.25 0"/>
<feBlend mode="normal" in2="BackgroundImageFix" result="effect1_dropShadow_9_326"/>
<feBlend mode="normal" in="SourceGraphic" in2="effect1_dropShadow_9_326" result="shape"/>
</filter>
<filter id="filter14_d_9_326" x="135" y="415" width="46" height="46" filterUnits="userSpaceOnUse" color-interpolation-filters="sRGB">
<feFlood flood-opacity="0" result="BackgroundImageFix"/>
<feColorMatrix in="SourceAlpha" type="matrix" values="0 0 0 0 0 0 0 0 0 0 0 0 0 0 0 0 0 0 127 0" result="hardAlpha"/>
<feOffset/>
<feGaussianBlur stdDeviation="7.5"/>
<feColorMatrix type="matrix" values="0 0 0 0 0.323144 0 0 0 0 0.512664 0 0 0 0 1 0 0 0 0.25 0"/>
<feBlend mode="normal" in2="BackgroundImageFix" result="effect1_dropShadow_9_326"/>
<feBlend mode="normal" in="SourceGraphic" in2="effect1_dropShadow_9_326" result="shape"/>
</filter>
<filter id="filter15_d_9_326" x="341" y="393" width="46" height="46" filterUnits="userSpaceOnUse" color-interpolation-filters="sRGB">
<feFlood flood-opacity="0" result="BackgroundImageFix"/>
<feColorMatrix in="SourceAlpha" type="matrix" values="0 0 0 0 0 0 0 0 0 0 0 0 0 0 0 0 0 0 127 0" result="hardAlpha"/>
<feOffset/>
<feGaussianBlur stdDeviation="7.5"/>
<feColorMatrix type="matrix" values="0 0 0 0 0.323144 0 0 0 0 0.512664 0 0 0 0 1 0 0 0 0.25 0"/>
<feBlend mode="normal" in2="BackgroundImageFix" result="effect1_dropShadow_9_326"/>
<feBlend mode="normal" in="SourceGraphic" in2="effect1_dropShadow_9_326" result="shape"/>
</filter>
<filter id="filter16_d_9_326" x="290" y="306" width="148" height="124.002" filterUnits="userSpaceOnUse" color-interpolation-filters="sRGB">
<feFlood flood-opacity="0" result="BackgroundImageFix"/>
<feColorMatrix in="SourceAlpha" type="matrix" values="0 0 0 0 0 0 0 0 0 0 0 0 0 0 0 0 0 0 127 0" result="hardAlpha"/>
<feOffset dy="10"/>
<feGaussianBlur stdDeviation="15"/>
<feColorMatrix type="matrix" values="0 0 0 0 0.894415 0 0 0 0 0.918495 0 0 0 0 0.984716 0 0 0 1 0"/>
<feBlend mode="normal" in2="BackgroundImageFix" result="effect1_dropShadow_9_326"/>
<feBlend mode="normal" in="SourceGraphic" in2="effect1_dropShadow_9_326" result="shape"/>
</filter>
<linearGradient id="paint0_linear_9_326" x1="278.273" y1="490.466" x2="278.273" y2="11.4031" gradientUnits="userSpaceOnUse">
<stop stop-color="#4B71FF" stop-opacity="0"/>
<stop offset="1" stop-color="#6B89F8"/>
</linearGradient>
</defs>
</svg>
